<?xml version="1.0" encoding="UTF-8"?><svg xmlns="http://www.w3.org/2000/svg" id="Ebene_2" viewBox="0 0 141.73 37.45"><defs><style> .cls-1 { fill: #0c2a3e; } .cls-2 { fill: #19e128; } </style></defs><g id="Logo_mit_Claim"><g><path class="cls-1" d="M3.94,28.16h-.95l-.98,6.13h.99l-.12.79H0l.13-.79h.97l.97-6.13h-.95l.12-.77h2.8l-.11.77Z"/><path class="cls-1" d="M5.75,30.36h.02c.26-.29.83-.85,1.84-.85.71,0,1.22.29,1.43.89.35-.35,1.04-.89,2.05-.89s1.58.54,1.58,1.61c0,.25-.06.65-.13,1.14l-.43,2.82h-.92l.45-2.82c.07-.41.1-.71.1-.9,0-.7-.33-1.05-1-1.05-.73,0-1.29.45-1.58.73v.1c0,.23-.06.64-.13,1.13l-.45,2.82h-.91l.45-2.82c.07-.41.11-.71.11-.9,0-.68-.32-1.05-.96-1.05-.77,0-1.36.59-1.58.83l-.62,3.95h-.91l.86-5.43h.87l-.11.71Z"/><path class="cls-1" d="M15.16,30.36h.02c.26-.29.83-.85,1.84-.85.71,0,1.22.29,1.43.89.35-.35,1.04-.89,2.05-.89s1.58.54,1.58,1.61c0,.25-.06.65-.13,1.14l-.43,2.82h-.92l.45-2.82c.07-.41.1-.71.1-.9,0-.7-.33-1.05-1-1.05-.73,0-1.29.45-1.58.73v.1c0,.23-.06.64-.13,1.13l-.45,2.82h-.91l.45-2.82c.07-.41.11-.71.11-.9,0-.68-.32-1.05-.96-1.05-.77,0-1.36.59-1.58.83l-.62,3.95h-.91l.86-5.43h.87l-.11.71Z"/><path class="cls-1" d="M24.94,32.67h-1.04v.23c0,1,.45,1.49,1.37,1.49.81,0,1.31-.38,1.44-.5l.26.71c-.16.15-.76.6-1.91.6-1.32,0-2.05-.78-2.05-2.25,0-2.2,1.45-3.45,2.99-3.45.96,0,1.56.5,1.56,1.35,0,1.13-.77,1.81-2.62,1.81ZM24.01,31.96h.9c1.37,0,1.82-.36,1.82-.96,0-.44-.29-.7-.83-.7-.86,0-1.63.61-1.9,1.66Z"/><path class="cls-1" d="M31.37,30.39s-.12-.01-.23-.01c-.86,0-1.35.56-1.6,1l-.59,3.7h-.9l.86-5.43h.87l-.16.93h.01c.25-.49.74-1.03,1.87-1.03l-.13.84Z"/><path class="cls-1" d="M39.96,35.08h-.85l-.83-4.17h-.02l-2.13,4.17h-.84l-.57-5.43h.93l.32,4.06h.02l2.06-4.06h.84l.77,4.06h.02l1.63-4.06h.93l-2.29,5.43Z"/><path class="cls-1" d="M44.27,32.67h-1.04v.23c0,1,.45,1.49,1.37,1.49.81,0,1.31-.38,1.44-.5l.26.71c-.16.15-.76.6-1.91.6-1.32,0-2.05-.78-2.05-2.25,0-2.2,1.45-3.45,2.99-3.45.96,0,1.56.5,1.56,1.35,0,1.13-.77,1.81-2.62,1.81ZM43.34,31.96h.9c1.37,0,1.82-.36,1.82-.96,0-.44-.29-.7-.83-.7-.86,0-1.63.61-1.9,1.66Z"/><path class="cls-1" d="M48.32,35.08h-.9l.86-5.43h.9l-.86,5.43ZM49.53,28v.02c0,.47-.29.77-.67.77-.29,0-.48-.13-.48-.43v-.02c0-.47.29-.78.67-.78.29,0,.48.15.48.45Z"/><path class="cls-1" d="M51.79,29.65h1.41l-.12.78h-1.41l-.39,2.48c-.06.29-.09.56-.09.75,0,.51.21.71.67.71.3,0,.51-.07.59-.09l-.09.76c-.09.04-.33.15-.76.15-.79,0-1.33-.39-1.33-1.32,0-.25.03-.56.09-.94l.39-2.5h-.71l.12-.78h.73l.2-1.23h.9l-.2,1.23Z"/><path class="cls-1" d="M55.26,32.67h-1.04v.23c0,1,.45,1.49,1.37,1.49.81,0,1.31-.38,1.44-.5l.26.71c-.16.15-.76.6-1.91.6-1.32,0-2.05-.78-2.05-2.25,0-2.2,1.45-3.45,2.99-3.45.96,0,1.56.5,1.56,1.35,0,1.13-.77,1.81-2.62,1.81ZM54.33,31.96h.9c1.37,0,1.82-.36,1.82-.96,0-.44-.29-.7-.83-.7-.86,0-1.63.61-1.9,1.66Z"/><path class="cls-1" d="M61.69,30.39s-.12-.01-.23-.01c-.86,0-1.35.56-1.6,1l-.59,3.7h-.9l.86-5.43h.87l-.16.93h.01c.25-.49.74-1.03,1.87-1.03l-.13.84Z"/><path class="cls-1" d="M63.03,34.35v.02c0,.46-.28.8-.68.8-.3,0-.48-.18-.48-.51v-.02c0-.46.27-.8.68-.8.29,0,.48.18.48.51ZM63.71,30.07v.02c0,.46-.28.8-.68.8-.3,0-.48-.18-.48-.51v-.02c0-.46.27-.8.68-.8.29,0,.48.18.48.51Z"/><path class="cls-1" d="M73.15,28.7h-3.47l-.29,1.81h3.12l-.19,1.25h-3.13l-.31,1.97h3.57l-.22,1.35h-5.11l1.22-7.7h5.03l-.21,1.32Z"/><path class="cls-1" d="M75.4,30.25h.02c.27-.28.86-.8,1.84-.8s1.55.55,1.55,1.62c0,.29-.06.76-.13,1.22l-.43,2.8h-1.48l.45-2.81c.06-.31.09-.59.09-.78,0-.55-.22-.81-.73-.81-.6,0-1.04.39-1.25.59l-.6,3.81h-1.48l.87-5.5h1.41l-.11.67Z"/><path class="cls-1" d="M81.76,32.76h-.8c.01.87.39,1.24,1.17,1.24s1.23-.33,1.37-.46l.36,1.04c-.19.17-.81.64-2.05.64-1.41,0-2.25-.78-2.25-2.33,0-2.23,1.53-3.44,3.13-3.44,1.07,0,1.72.56,1.72,1.45,0,1.19-.83,1.86-2.64,1.86ZM81.05,31.86h.68c1.08,0,1.43-.28,1.43-.75,0-.32-.21-.51-.62-.51-.67,0-1.25.47-1.48,1.26Z"/><path class="cls-1" d="M88.57,30.77c-.06-.01-.17-.03-.32-.03-.79,0-1.23.45-1.45.79l-.57,3.56h-1.47l.87-5.5h1.39l-.15.89h.02c.27-.51.75-1,1.89-1l-.21,1.29Z"/><path class="cls-1" d="M93.72,34.4c-.33,2.12-1.36,3.04-3.38,3.04-1.25,0-1.85-.52-2.07-.74l.49-1.17c.19.19.7.67,1.63.67,1.25,0,1.71-.57,1.85-1.6l.04-.27h-.02c-.13.17-.62.76-1.64.76-1.13,0-1.85-.8-1.85-2.23,0-2.16,1.38-3.42,2.79-3.42.94,0,1.29.5,1.42.72h.01l.11-.59h1.38l-.76,4.82ZM91.81,30.65c-.81,0-1.53.72-1.53,2.11,0,.73.35,1.1.92,1.1.69,0,1.05-.39,1.22-.58l.35-2.12c-.09-.16-.33-.51-.95-.51Z"/><path class="cls-1" d="M96.38,35.08h-1.48l.87-5.5h1.48l-.87,5.5ZM97.58,27.97h0c0,.64-.41,1-.98,1-.46,0-.73-.22-.73-.62v-.02c0-.62.42-.99.98-.99.46,0,.72.22.72.64Z"/><path class="cls-1" d="M99.92,32.76h-.8c.01.87.39,1.24,1.17,1.24s1.23-.33,1.37-.46l.36,1.04c-.19.17-.81.64-2.05.64-1.41,0-2.25-.78-2.25-2.33,0-2.23,1.53-3.44,3.13-3.44,1.07,0,1.72.56,1.72,1.45,0,1.19-.83,1.86-2.64,1.86ZM99.22,31.86h.68c1.08,0,1.43-.28,1.43-.75,0-.32-.21-.51-.62-.51-.67,0-1.25.47-1.48,1.26Z"/><path class="cls-1" d="M104.67,34.12v.02c0,.61-.41,1.05-.99,1.05-.45,0-.73-.29-.73-.74v-.03c0-.61.41-1.04.99-1.04.45,0,.72.29.72.74Z"/></g><path class="cls-2" d="M6.25,7.77h1.22L12.56,0h7.26l-7.15,9.65,7.62,10.9h-7.89l-4.97-8.1h-1.19v8.1H0V0h6.25v7.77ZM40.42,20.54h-5.78l-6.67-9.79h-.06v9.79h-6.25V0h5.72l6.73,9.8h.06V0h6.25v20.54ZM63.5,20.54h-6.64l-1.31-4.23h-6.1l-1.31,4.23h-6.37L49.42,0h6.43l7.65,20.54ZM52.55,6.31h-.06l-1.88,6.16h3.78l-1.85-6.16ZM82.79,11.13c0,6.16-2.95,9.76-9.53,9.76s-9.44-3.22-9.44-9.76V0h6.28v11.28c0,2.83,1.1,4.17,3.3,4.17s3.28-1.37,3.28-4.17V0h6.1v11.13ZM94.56,20.54h-8.75V0h8.69c5.57,0,8.1,2.02,8.1,5.24,0,2.74-1.58,4.05-3.3,4.64v.06c2.05.45,4.02,1.96,4.02,4.7,0,3.57-2.65,5.89-8.75,5.89ZM94.08,4.85h-2.23v3.22h2.23c1.79,0,2.53-.63,2.53-1.67,0-.95-.63-1.55-2.53-1.55ZM94.35,12.06h-2.5v3.45h2.53c2.14,0,2.86-.66,2.86-1.73s-.8-1.73-2.89-1.73ZM120.28,5.18h-8.43v2.5h7.53v4.85h-7.53v2.71h8.6v5.3h-14.86V0h14.68v5.18ZM134.44,20.54l-3.01-6.13h-1.91v6.13h-6.25V0h7.89c6.31,0,9.68,2.41,9.68,7.12,0,2.8-1.25,4.82-3.45,6.01l4.35,7.41h-7.29ZM131.28,5.21h-1.76v4.67h1.7c2.26,0,3.27-.92,3.27-2.38s-.92-2.29-3.21-2.29Z"/></g></svg>