<?xml version="1.0" encoding="UTF-8"?>
<svg xmlns="http://www.w3.org/2000/svg" xmlns:xlink="http://www.w3.org/1999/xlink" id="Ebene_1" viewBox="0 0 85.04 170.08" width="145" height="290"><defs><style>.cls-1{fill:#fff;}.cls-2{fill:#d5d3d5;}.cls-3{fill:#94c11f;}.cls-4{fill:#272523;}.cls-5{fill:#ee7100;}.cls-6{fill:#2a2726;}.cls-7{fill:#282019;}.cls-8{fill:#565655;}.cls-9{fill:#29211a;}.cls-10{clip-path:url(#clippath);}.cls-11,.cls-12{fill:none;}.cls-13{fill:#181716;}.cls-12{stroke:#fff;stroke-miterlimit:10;stroke-width:1.5px;}</style><clipPath id="clippath"><rect class="cls-11" y="0" width="85.04" height="170.08"/></clipPath></defs><polygon class="cls-1" points="85.04 170.08 0 170.08 0 0 85.04 0 85.04 170.08 85.04 170.08"/><g class="cls-10"><path class="cls-5" d="m12.15,21.08v-9.26h6.65c3.08,0,5.07,1.74,5.07,4.59s-1.99,4.66-5.07,4.66h-6.65Zm14.76,12.59s-4.84-9.63-4.84-9.63l.21-.06c3.52-.97,5.63-3.78,5.63-7.5,0-4.94-3.53-8.26-8.79-8.26h-8.96c-1.64,0-2.03,1.24-2.05,1.77v24.57c0,1.12.91,2.03,2.02,2.03s2.02-.91,2.02-2.03c0-.07-.01-10.13-.01-10.13h5.47l5.82,11.29c.37.53.97.87,1.66.87,1.12,0,2.02-.91,2.02-2.02,0-.33-.08-.64-.22-.91,0,0,0,0,0,0h0Z"/><path class="cls-5" d="m80.99,40.63H4.05V4.04h76.94v36.59h0Zm4.05-38.61C85.04.91,84.13,0,83.01,0,82.93,0,2,0,1.99,0,.9.02.02.9,0,2,0,2,0,21.98,0,34.9c0,2.68,0,7.28,0,7.76,0,1.11.89,2,1.99,2.02,0,0,80.99,0,80.99,0,0,0,0,0,.01,0s0,0,.01,0c1.12,0,2.02-.91,2.02-2.03V2.03h0Z"/></g><path class="cls-5" d="m40.07,24.44l3.53-10.44,3.53,10.44h-7.05Zm14.46,9.45l-9.05-24.45c-.27-.78-.98-1.32-1.8-1.36h-.18c-.81.04-1.53.57-1.79,1.36l-9.05,24.45c-.09.23-.13.47-.13.69,0,1.11.9,2.01,2,2.01.85,0,1.6-.54,1.89-1.35l2.5-7.41h9.34l2.5,7.41c.28.8,1.04,1.35,1.89,1.35,1.11,0,2-.9,2-2.01,0-.23-.04-.46-.13-.69h0Z"/><path class="cls-5" d="m75.13,32.53h-10.34V10.04c-.02-1.09-.94-1.98-2.06-1.98s-1.97.87-1.99,1.98c0,0,0,24.5,0,24.52,0,1.12.91,2.02,2.02,2.02.03,0,12.36,0,12.36,0,1.12,0,2.02-.91,2.02-2.02s-.91-2.02-2.02-2.02h0Z"/><path class="cls-13" d="m85.04,56.69H0v113.38h85.04V56.69h0Zm-.71.71v111.97H.71V57.4h83.62"/><path class="cls-13" d="m4.99,54.74c-.59.63-1.33.89-2.16.89s-1.52-.3-2.06-.84C0,54.02.02,53.15.02,51.64s-.01-2.38.76-3.15c.54-.54,1.22-.84,2.06-.84,1.66,0,2.63,1.09,2.85,2.43h-1.2c-.2-.86-.77-1.36-1.65-1.36-.46,0-.88.19-1.16.48-.39.42-.47.86-.47,2.43s.09,2.02.47,2.44c.27.3.69.47,1.16.47.52,0,.97-.2,1.28-.55.29-.33.4-.73.4-1.23v-.44h-1.67v-1.01h2.86v1.2c0,1.01-.19,1.66-.7,2.21h0Z"/><path class="cls-13" d="m12.26,46.91v-1.19h1.01v1.19h-1.01Zm-2.38,0v-1.19h1.01v1.19h-1.01Zm1.68,8.71c-1.6,0-2.81-1.09-2.81-2.71v-5.19h1.19v5.14c0,1.04.64,1.69,1.62,1.69s1.63-.65,1.63-1.69v-5.14h1.19v5.19c0,1.62-1.22,2.71-2.82,2.71h0Z"/><polygon class="cls-13" points="20.4 48.8 20.4 55.56 19.21 55.56 19.21 48.8 17.05 48.8 17.05 47.73 22.56 47.73 22.56 48.8 20.4 48.8 20.4 48.8"/><polygon class="cls-13" points="25.35 55.56 25.35 47.73 30.35 47.73 30.35 48.8 26.54 48.8 26.54 51.08 29.79 51.08 29.79 52.14 26.54 52.14 26.54 54.49 30.35 54.49 30.35 55.56 25.35 55.56 25.35 55.56"/><polygon class="cls-13" points="32.93 55.56 32.93 54.54 36.55 48.8 33.08 48.8 33.08 47.73 37.94 47.73 37.94 48.7 34.3 54.49 37.94 54.49 37.94 55.56 32.93 55.56 32.93 55.56"/><polygon class="cls-13" points="40.93 55.56 40.93 47.73 45.94 47.73 45.94 48.8 42.12 48.8 42.12 51.08 45.38 51.08 45.38 52.14 42.12 52.14 42.12 54.49 45.94 54.49 45.94 55.56 40.93 55.56 40.93 55.56"/><polygon class="cls-13" points="49.01 55.56 49.01 47.73 50.2 47.73 50.2 55.56 49.01 55.56 49.01 55.56"/><path class="cls-13" d="m56.21,55.63c-.81,0-1.52-.3-2.06-.84-.77-.77-.76-1.64-.76-3.15s-.01-2.38.76-3.15c.54-.54,1.24-.84,2.06-.84,1.44,0,2.52.85,2.79,2.41h-1.21c-.19-.79-.71-1.34-1.58-1.34-.46,0-.88.18-1.16.47-.38.42-.47.87-.47,2.44s.09,2.02.47,2.44c.28.3.69.47,1.16.47.87,0,1.41-.55,1.6-1.34h1.2c-.26,1.56-1.38,2.41-2.79,2.41h0Z"/><polygon class="cls-13" points="66.4 55.56 66.4 52.14 63.22 52.14 63.22 55.56 62.03 55.56 62.03 47.73 63.22 47.73 63.22 51.07 66.4 51.07 66.4 47.73 67.59 47.73 67.59 55.56 66.4 55.56 66.4 55.56"/><polygon class="cls-13" points="71.07 55.56 71.07 47.73 76.08 47.73 76.08 48.8 72.26 48.8 72.26 51.08 75.52 51.08 75.52 52.14 72.26 52.14 72.26 54.49 76.08 54.49 76.08 55.56 71.07 55.56 71.07 55.56"/><polygon class="cls-13" points="83.95 55.56 80.33 50.05 80.33 55.56 79.14 55.56 79.14 47.73 80.23 47.73 83.85 53.23 83.85 47.73 85.04 47.73 85.04 55.56 83.95 55.56 83.95 55.56"/><polyline class="cls-3" points="82.64 59.27 82.64 136.34 2.62 136.34 2.62 59.27"/><path class="cls-8" d="m18.2,150.39c-1.25,0-1.84-1.37-1.84-2.89s.6-2.89,1.84-2.89c.38,0,.7.11.95.31l-.17.43c-.18-.15-.42-.24-.7-.24-.86,0-1.22,1.18-1.22,2.37s.36,2.37,1.22,2.37c.29,0,.52-.09.7-.24l.17.46c-.24.2-.57.31-.95.31h0Z"/><path class="cls-8" d="m21.4,145.11c-.82,0-1.06,1.1-1.06,2.37s.24,2.38,1.06,2.38,1.06-1.1,1.06-2.38-.24-2.37-1.06-2.37h0Zm0,5.28c-1.26,0-1.75-1.3-1.75-2.89s.5-2.89,1.75-2.89,1.75,1.3,1.75,2.89-.5,2.89-1.75,2.89h0Z"/><path class="cls-8" d="m23.75,153.02l1.03-1.69c.2-.33.25-.53.25-.73,0-.37-.21-.61-.58-.61-.17,0-.36.05-.48.12l-.1-.24c.17-.11.41-.18.7-.18.52,0,.87.35.87.89,0,.24-.1.51-.34.89l-.8,1.22h1.15v.33h-1.69Z"/><polygon class="cls-8" points="26.18 148.05 26.18 147.5 27.8 147.5 27.8 148.05 26.18 148.05 26.18 148.05"/><polygon class="cls-8" points="30.94 150.31 29.4 148.01 29.39 148.01 29.39 150.31 28.75 150.31 28.75 143.9 29.39 143.9 29.39 147.98 29.4 147.98 30.9 145.91 31.57 145.91 29.99 147.98 31.66 150.31 30.94 150.31 30.94 150.31"/><path class="cls-8" d="m33.47,146.27c-.67,0-.82.94-.82,1.82s.15,1.82.82,1.82.82-.94.82-1.82-.16-1.82-.82-1.82h0Zm0,4.11c-1.06,0-1.48-1.04-1.48-2.28s.42-2.29,1.48-2.29,1.48,1.05,1.48,2.29-.42,2.28-1.48,2.28h0Z"/><path class="cls-8" d="m39.96,150.31v-3.22c0-.5-.22-.81-.73-.81-.29,0-.54.17-.7.42v3.62h-.64v-3.22c0-.51-.28-.81-.79-.81-.22,0-.45.05-.65.13v3.9h-.64v-4.17c.37-.2.83-.31,1.27-.31.51,0,.92.15,1.17.51.28-.34.65-.51,1.08-.51.81,0,1.26.48,1.26,1.26v3.22h-.64Z"/><path class="cls-8" d="m42.75,146.26c-.18,0-.35.03-.51.11v3.46c.14.06.31.09.47.09.82,0,1.09-.86,1.09-1.83s-.2-1.84-1.04-1.84h0Zm.03,4.11c-.17,0-.39-.05-.54-.11v1.79h-.64v-5.92c.33-.2.74-.31,1.14-.31,1.24,0,1.69,1.01,1.69,2.27s-.5,2.28-1.66,2.28h0Z"/><path class="cls-8" d="m46.71,146.26c-.61,0-.9.84-.9,1.74l1.74-.27c0-.75-.21-1.47-.84-1.47h0Zm-.88,2.15c.05.89.42,1.49,1.12,1.49.33,0,.67-.09.94-.25l.15.43c-.33.21-.73.31-1.14.31-1.07,0-1.68-.86-1.68-2.29,0-1.25.51-2.27,1.52-2.27s1.44.91,1.44,2.11v.11l-2.33.36h0Z"/><path class="cls-8" d="m51.14,150.31v-3.19c0-.55-.27-.84-.82-.84-.22,0-.43.05-.63.13v3.9h-.64v-4.17c.38-.2.82-.31,1.27-.31.95,0,1.47.44,1.47,1.3v3.18h-.64Z"/><path class="cls-8" d="m53.62,150.39c-.39,0-.77-.11-1.06-.31l.17-.43c.23.15.58.25.85.25.43,0,.71-.33.71-.75,0-1.02-1.66-.82-1.66-2.19,0-.69.53-1.13,1.25-1.13.38,0,.7.11.95.31l-.17.41c-.19-.15-.46-.25-.73-.25-.41,0-.68.27-.68.65,0,1.01,1.68.81,1.68,2.19,0,.73-.53,1.25-1.31,1.25h0Z"/><path class="cls-8" d="m55.79,150.31v-4.4h.64v4.4h-.64Zm.33-5.26c-.21,0-.38-.17-.38-.38s.17-.38.38-.38.38.17.38.38-.17.38-.38.38h0Z"/><path class="cls-8" d="m58.85,146.26c-.61,0-.9.84-.9,1.74l1.74-.27c0-.75-.21-1.47-.84-1.47h0Zm-.88,2.15c.05.89.42,1.49,1.12,1.49.33,0,.67-.09.94-.25l.15.43c-.33.21-.73.31-1.14.31-1.07,0-1.68-.86-1.68-2.29,0-1.25.51-2.27,1.52-2.27s1.44.91,1.44,2.11v.11l-2.33.36h0Z"/><path class="cls-8" d="m62.73,146.33c-.11-.03-.26-.03-.38-.03-.16,0-.36.03-.51.11v3.9h-.64v-4.17c.41-.22.87-.31,1.35-.31.11,0,.24,0,.34.02l-.15.49h0Z"/><path class="cls-8" d="m64.79,150.36c-.66,0-.93-.44-.93-1.08v-2.94h-.45v-.44h.45v-1.02l.64-.21v1.23h.67v.44h-.67v2.94c0,.36.12.58.44.58.07,0,.16,0,.23-.04v.46c-.11.06-.25.08-.38.08h0Z"/><path class="cls-8" d="m67.27,146.26c-.61,0-.9.84-.9,1.74l1.74-.27c0-.75-.21-1.47-.84-1.47h0Zm-.88,2.15c.05.89.42,1.49,1.12,1.49.33,0,.67-.09.94-.25l.15.43c-.34.21-.73.31-1.14.31-1.07,0-1.68-.86-1.68-2.29,0-1.25.51-2.27,1.52-2.27s1.44.91,1.44,2.11v.11l-2.33.36h0Z"/><polygon class="cls-8" points="18.8 160.1 18.8 154.49 21.07 154.49 21.07 154.98 19.47 154.98 19.47 156.96 20.91 156.96 20.91 157.44 19.47 157.44 19.47 159.61 21.07 159.61 21.07 160.1 18.8 160.1 18.8 160.1"/><path class="cls-8" d="m24,160.1v-3.19c0-.55-.27-.84-.82-.84-.22,0-.43.05-.63.13v3.9h-.64v-4.17c.38-.2.82-.31,1.27-.31.95,0,1.47.44,1.47,1.3v3.18h-.64Z"/><path class="cls-8" d="m27.02,156.05c-.61,0-.9.84-.9,1.74l1.74-.27c0-.75-.21-1.47-.84-1.47h0Zm-.88,2.15c.05.89.42,1.49,1.12,1.49.33,0,.67-.09.94-.25l.15.43c-.33.21-.73.31-1.14.31-1.07,0-1.68-.86-1.68-2.29,0-1.25.51-2.27,1.52-2.27s1.44.91,1.44,2.11v.11l-2.33.36h0Z"/><path class="cls-8" d="m30.9,156.13c-.11-.03-.26-.03-.38-.03-.16,0-.36.03-.51.11v3.9h-.64v-4.17c.41-.22.87-.31,1.35-.31.11,0,.24,0,.34.02l-.15.49h0Z"/><path class="cls-8" d="m33.65,156.17c-.15-.08-.32-.11-.49-.11-.78,0-1.06.82-1.06,1.87,0,.93.27,1.8.97,1.8.2,0,.4-.04.58-.14v-3.41h0Zm-.8,5.77c-.4,0-.84-.1-1.18-.3l.2-.44c.26.16.6.25.92.25.62,0,.86-.44.86-1.11v-.33c-.18.11-.42.16-.64.16-1.08,0-1.55-1-1.55-2.23,0-1.31.53-2.32,1.72-2.32.4,0,.78.11,1.11.31v4.38c0,.99-.47,1.62-1.44,1.62h0Z"/><path class="cls-8" d="m35.31,160.1v-4.4h.64v4.4h-.64Zm.33-5.26c-.21,0-.38-.17-.38-.38s.17-.38.38-.38.38.17.38.38-.17.38-.38.38h0Z"/><path class="cls-8" d="m38.37,156.05c-.61,0-.9.84-.9,1.74l1.74-.27c0-.75-.21-1.47-.84-1.47h0Zm-.88,2.15c.05.89.42,1.49,1.12,1.49.33,0,.67-.09.94-.25l.15.43c-.33.21-.73.31-1.14.31-1.07,0-1.68-.86-1.68-2.29,0-1.25.51-2.27,1.52-2.27s1.44.91,1.44,2.11v.11l-2.33.36h0Z"/><path class="cls-8" d="m41.85,156.05c-.18,0-.35.03-.51.11v3.46c.14.06.31.09.47.09.82,0,1.09-.86,1.09-1.83s-.2-1.84-1.04-1.84h0Zm.03,4.11c-.17,0-.39-.05-.54-.11v1.8h-.64v-5.93c.33-.2.74-.31,1.14-.31,1.24,0,1.69,1.01,1.69,2.27s-.5,2.28-1.66,2.28h0Z"/><path class="cls-8" d="m45.96,156.13c-.11-.03-.26-.03-.38-.03-.16,0-.36.03-.51.11v3.9h-.64v-4.17c.41-.22.87-.31,1.35-.31.11,0,.24,0,.34.02l-.15.49h0Z"/><path class="cls-8" d="m47.99,156.07c-.67,0-.82.94-.82,1.82s.15,1.82.82,1.82.82-.94.82-1.82-.16-1.82-.82-1.82h0Zm0,4.11c-1.06,0-1.48-1.04-1.48-2.28s.42-2.28,1.48-2.28,1.48,1.05,1.48,2.28-.42,2.28-1.48,2.28h0Z"/><path class="cls-8" d="m52.43,156.15c-.14-.06-.31-.09-.46-.09-.82,0-1.09.87-1.09,1.84s.2,1.84,1.04,1.84c.18,0,.35-.04.51-.12v-3.46h0Zm-.51,4.03c-1.24,0-1.69-1.01-1.69-2.27s.5-2.28,1.66-2.28c.17,0,.39.05.54.11v-2.05h.64v6.18c-.33.2-.74.31-1.14.31h0Z"/><path class="cls-8" d="m55.49,160.18c-.97,0-1.43-.44-1.43-1.4v-3.08h.64v3.09c0,.57.21.91.78.91.23,0,.46-.04.64-.13v-3.87h.64v4.17c-.33.2-.82.31-1.27.31h0Z"/><polygon class="cls-8" points="59.97 160.1 58.44 157.81 58.42 157.81 58.42 160.1 57.79 160.1 57.79 153.69 58.42 153.69 58.42 157.77 58.44 157.77 59.93 155.7 60.61 155.7 59.03 157.77 60.7 160.1 59.97 160.1 59.97 160.1"/><path class="cls-8" d="m62.49,160.16c-.66,0-.93-.44-.93-1.08v-2.94h-.45v-.44h.45v-1.02l.64-.21v1.23h.67v.44h-.67v2.94c0,.36.12.58.44.58.07,0,.16,0,.23-.04v.46c-.11.06-.25.08-.38.08h0Z"/><path class="cls-8" d="m64.98,156.05c-.61,0-.9.84-.9,1.74l1.74-.27c0-.75-.21-1.47-.84-1.47h0Zm-.88,2.15c.05.89.42,1.49,1.12,1.49.33,0,.67-.09.94-.25l.15.43c-.33.21-.73.31-1.14.31-1.07,0-1.68-.86-1.68-2.29,0-1.25.51-2.27,1.52-2.27s1.44.91,1.44,2.11v.11l-2.33.36h0Z"/><polygon class="cls-1" points="73.52 94.7 10.87 94.7 10.87 92.19 73.52 92.19 73.52 94.7 73.52 94.7"/><polygon class="cls-1" points="43.43 138.26 40.74 138.26 40.74 94.62 43.43 94.62 43.43 138.26 43.43 138.26"/><polygon class="cls-12" points="74.6 125.75 61.48 94.73 48.36 125.75 74.6 125.75 74.6 125.75"/><path class="cls-1" d="m47.44,127.4c1.48,2.66,7.2,4.65,14.04,4.65s12.56-1.98,14.04-4.65h-28.08Z"/><polygon class="cls-12" points="35.98 125.75 22.86 94.73 9.74 125.75 35.98 125.75 35.98 125.75"/><path class="cls-1" d="m8.82,127.4c1.48,2.66,7.2,4.65,14.04,4.65s12.56-1.98,14.04-4.65H8.82Z"/><path class="cls-1" d="m31.12,113.44c-.66-1.87-2.21-3.18-4.02-3.18-.49,0-.96.1-1.4.27-.74-1.59-2.17-2.66-3.81-2.66s-3.01,1.04-3.77,2.58c-.25-.05-.5-.08-.76-.08-2.41,0-4.36,2.32-4.36,5.17s1.95,5.17,4.36,5.17c.77,0,1.49-.24,2.12-.65.78.86,1.82,1.39,2.97,1.39s2.11-.49,2.88-1.29c.54.29,1.14.45,1.77.45.76,0,1.48-.23,2.1-.64.42.27.9.42,1.41.42,1.63,0,2.95-1.57,2.95-3.5,0-1.73-1.05-3.16-2.43-3.45h0Z"/><path class="cls-3" d="m20.23,118.04c-1.53,0-2.25-1.66-2.25-3.47s.72-3.47,2.25-3.47c.47,0,.87.13,1.18.37l-.24.7c-.2-.16-.45-.25-.76-.25-.93,0-1.32,1.27-1.32,2.63s.39,2.63,1.32,2.63c.31,0,.57-.1.76-.26l.24.73c-.3.25-.71.37-1.18.37h0Z"/><path class="cls-3" d="m24.1,111.9c-.85,0-1.09,1.19-1.09,2.64s.24,2.62,1.09,2.62,1.09-1.17,1.09-2.62-.24-2.64-1.09-2.64h0Zm0,6.14c-1.57,0-2.18-1.55-2.18-3.47s.62-3.47,2.18-3.47,2.18,1.55,2.18,3.47-.62,3.47-2.18,3.47h0Z"/><path class="cls-3" d="m26.91,119.33l.65-1.08c.11-.19.14-.31.14-.43,0-.21-.12-.36-.35-.36-.1,0-.22.03-.29.08l-.08-.21c.11-.07.27-.11.46-.11.38,0,.58.26.58.58,0,.15-.07.33-.21.56l-.45.7h.67v.28h-1.12Z"/><path class="cls-1" d="m69.9,122.36s0-.02,0-.02c-.33-1.29-.67-2.59-1-3.88-.02-.07-.06-.1-.13-.1-1.65,0-3.3,0-4.94,0-.08,0-.12.03-.14.11-.31,1.22-.63,2.45-.95,3.67-.02.07-.03.14-.05.21h7.21Zm-3.6.33h-3.68c-.22,0-.32-.12-.26-.33.34-1.33.69-2.66,1.03-3.99.05-.21.21-.33.42-.33,1.66,0,3.32,0,4.98,0,.22,0,.37.12.43.34.34,1.32.68,2.64,1.02,3.96.06.23-.03.34-.26.34h-3.68Z"/><path class="cls-1" d="m67.19,122.14c-.19,0-.38,0-.57,0-.14,0-.2-.06-.2-.2,0-.21,0-.43,0-.64,0-.14.06-.2.2-.2.34,0,.68,0,1.02,0,.13,0,.21.07.22.2.03.21.05.41.08.62.02.16-.03.22-.19.22h-.56Z"/><path class="cls-1" d="m63.72,122.14c-.18,0-.37,0-.55,0-.13,0-.18-.06-.15-.19.06-.22.11-.45.17-.67.03-.12.11-.18.24-.18.33,0,.65,0,.98,0,.12,0,.18.06.16.18-.03.22-.06.45-.09.67-.02.11-.09.18-.21.18-.18,0-.37,0-.55,0h0Z"/><path class="cls-1" d="m65.44,122.14c-.18,0-.36,0-.54,0-.12,0-.18-.07-.16-.19.03-.22.06-.44.09-.67.02-.12.09-.18.21-.18.32,0,.65,0,.97,0,.11,0,.18.06.18.17,0,.23,0,.47,0,.7,0,.11-.08.17-.19.17-.18,0-.37,0-.55,0h0Z"/><path class="cls-1" d="m67.11,120.85c-.16,0-.33,0-.49,0-.13,0-.2-.06-.2-.2,0-.22,0-.45,0-.67,0-.12.07-.19.19-.19.29,0,.58,0,.87,0,.12,0,.2.06.21.18.04.24.07.47.09.71.01.12-.04.18-.16.18-.17,0-.34,0-.51,0h0Z"/><path class="cls-1" d="m68.92,122.14c-.17,0-.34,0-.51,0-.12,0-.2-.06-.22-.18-.03-.23-.06-.45-.09-.68-.01-.11.05-.17.16-.17.3,0,.61,0,.91,0,.11,0,.2.06.22.17.06.23.12.46.18.7.03.1-.03.17-.14.17-.17,0-.35,0-.52,0h0Z"/><path class="cls-1" d="m63.96,120.85c-.16,0-.32,0-.48,0-.12,0-.16-.06-.14-.18.06-.23.12-.47.18-.7.03-.12.11-.19.24-.19.26,0,.53,0,.79,0,.15,0,.2.06.18.21-.03.22-.06.45-.09.67-.02.11-.08.18-.2.18-.16,0-.32,0-.49,0h0Z"/><path class="cls-1" d="m65.53,120.85c-.15,0-.31,0-.46,0-.13,0-.18-.06-.17-.19.03-.22.06-.45.09-.67.02-.13.09-.2.22-.2.25,0,.51,0,.77,0,.14,0,.2.07.2.2,0,.22,0,.44,0,.66,0,.13-.07.2-.2.2-.15,0-.3,0-.45,0h0Z"/><path class="cls-1" d="m68.67,120.85c-.14,0-.28,0-.43,0-.13,0-.2-.06-.22-.2-.03-.22-.06-.44-.09-.67-.02-.15.04-.21.18-.21.23,0,.46,0,.69,0,.14,0,.22.06.26.2.06.22.12.45.17.67.03.13-.01.19-.15.2-.14,0-.28,0-.42,0h0Z"/><path class="cls-1" d="m67.02,119.54c-.14,0-.27,0-.41,0-.13,0-.19-.06-.19-.19,0-.19,0-.38,0-.57,0-.12.07-.19.19-.19.24,0,.47,0,.71,0,.12,0,.2.07.21.19.03.19.05.39.08.58.02.12-.04.19-.17.19-.14,0-.28,0-.42,0h0Z"/><path class="cls-1" d="m64.22,119.54c-.13,0-.26,0-.39,0-.12,0-.17-.06-.14-.18.05-.19.1-.38.15-.58.04-.14.12-.2.26-.2.21,0,.42,0,.63,0,.13,0,.19.07.17.18-.02.2-.05.39-.08.59-.02.12-.09.18-.21.18-.13,0-.26,0-.39,0h0Z"/><path class="cls-1" d="m65.61,119.54c-.13,0-.25,0-.38,0-.11,0-.17-.06-.16-.17.02-.2.05-.4.08-.61.02-.11.09-.17.21-.18.21,0,.42,0,.64,0,.11,0,.18.07.18.18,0,.2,0,.4,0,.59,0,.11-.07.18-.18.18-.13,0-.25,0-.38,0h0Z"/><path class="cls-1" d="m68.41,119.54c-.12,0-.23,0-.35,0-.12,0-.19-.07-.21-.18-.03-.19-.05-.39-.07-.58-.01-.13.04-.19.17-.19.19,0,.37,0,.56,0,.13,0,.21.07.24.19.05.19.1.38.15.57.03.13-.01.19-.15.19-.11,0-.23,0-.34,0h0Z"/><polygon class="cls-1" points="66.7 125.18 66.13 125.18 66.13 122.45 66.7 122.45 66.7 125.18 66.7 125.18"/><path class="cls-1" d="m60.22,113.39c.02.06.04.12-.02.18,0,.33,0,.66,0,.99.02.78-.02,1.56-.06,2.34,0,.05,0,.11,0,.16.01.82-.01,1.63-.05,2.44-.03.66,0,1.31-.04,1.97-.06,1.01-.06,2.03-.08,3.04,0,.25,0,.5-.04.74-.01.11.04.14.14.14.42,0,.83,0,1.25.01.11,0,.12-.08.11-.15,0-.16-.03-.32-.03-.48,0-.65,0-1.3-.05-1.95-.04-.46-.02-.92-.04-1.38,0-.19,0-.38,0-.57-.03-.78-.07-1.55-.1-2.33-.02-.49-.04-.98-.04-1.47,0-1.1-.09-2.21-.1-3.31,0-.76-.07-1.52-.06-2.28,0-.15-.05-.19-.21-.19-.5,0-.49,0-.5.44-.01.47.04.94-.05,1.41.01.08.02.16,0,.24h0Z"/><path class="cls-1" d="m55.83,113.79c-.1.24-.29.42-.44.62-.28.36-.57.71-.86,1.07-.03.04-.1.09-.04.13.05.04.09-.03.13-.06.52-.39,1.03-.78,1.52-1.2.09-.08.18-.15.3-.18.04-.14.17-.2.31-.25.02-.02.03-.04.05-.07.02-.01.05-.03.07-.04.01-.01.03-.02.04-.03.05-.1.15-.15.24-.21.36-.31.72-.61,1.07-.92.57-.5,1.13-1,1.7-1.49.08-.07.07-.12.02-.21-.2-.32-.32-.41-.82-.2-.38.16-.69.42-.99.68-.71.61-1.31,1.29-1.92,1.98-.06.07-.12.14-.18.21-.05.07-.08.16-.2.18h0Z"/><path class="cls-1" d="m58.44,102.95c-.03.17.03.33.06.48.14.67.29,1.34.46,2,.18.71.41,1.41.59,2.12.15.57.34,1.12.5,1.69.03.11,0,.29.24.29.33,0,.45-.05.54-.27.09-.23.09-.46.04-.7-.27-1.41-.9-2.7-1.54-3.98-.27-.55-.55-1.1-.9-1.63h0Z"/><path class="cls-1" d="m68.89,111.86c-.24-.15-.48-.19-.7-.26-.72-.22-1.43-.45-2.16-.65-.67-.19-1.36-.35-2.04-.52-.7-.18-1.41-.36-2.12-.5-.1-.02-.15-.01-.2.07-.22.35-.19.51.19.73.53.31,1.13.43,1.73.56.73.16,1.47.25,2.21.34.61.07,1.23.11,1.84.16.4.03.8.1,1.25.06h0Z"/><path class="cls-1" d="m59.88,110.36c0,.41.31.7.75.7.38,0,.76-.26.76-.71,0-.36-.39-.71-.77-.68-.44.02-.74.29-.74.7h0Z"/><path class="cls-1" d="m56.15,117.76c.39.38.74.78,1.06,1.2-.09.1-.17.19-.25.28-.19.22-.39.43-.58.65,0,.01-.02.03-.02.04,0,.08,0,.17,0,.25,0,0,.01,0,.02,0,.32-.36.64-.71.96-1.07.1.14.2.28.29.42.12.18.22.37.34.56.02.04.02.06-.01.09-.31.34-.62.69-.93,1.04-.22.24-.43.48-.65.72-.02.02-.03.06-.04.09,0,.08,0,.15,0,.23,0,0,.01,0,.02,0,.58-.64,1.15-1.29,1.74-1.94.01.01.02.02.02.04.15.31.28.63.35.97.01.04,0,.07-.03.1-.69.65-1.39,1.3-2.08,1.95-.02.02-.03.05-.03.07,0,.07,0,.14,0,.22.72-.68,1.45-1.36,2.18-2.05,0,.04,0,.07.01.09.05.49-.04.95-.32,1.36-.22.33-.52.57-.86.76-.16.09-.32.17-.49.23-.15.05-.31.07-.46.11-.03,0-.06.01-.09.02,0,.22,0,.44,0,.65,0,.08-.03.16-.09.21-.08.06-.17.07-.26.03-.09-.05-.14-.13-.14-.23,0-.44.01-.88.02-1.32.02-1.37.03-2.75.05-4.13,0-.45.01-.91.02-1.36,0-.03.02-.06.04-.08.07-.07.14-.14.22-.22h0Z"/><path class="cls-1" d="m54.17,120.29c.08.1.17.19.25.29.18.21.36.42.54.63.23.27.46.54.68.81,0,.01.02.03.02.05,0,.37,0,.75-.01,1.12,0,0,0,0,0,.02,0,0-.02,0-.02-.01-.46-.45-.91-.9-1.37-1.35-.15-.15-.31-.3-.46-.45-.02-.02-.03-.05-.02-.07.08-.35.22-.69.39-1.01,0,0,0,0,.01-.01h0Z"/><path class="cls-1" d="m55.62,124.16c-.19-.07-.37-.14-.55-.21-.3-.13-.57-.31-.81-.54-.44-.45-.63-.98-.58-1.61,0-.07.01-.13.02-.21.02.02.03.03.04.04.61.61,1.23,1.21,1.84,1.82.03.03.04.06.04.1,0,.19,0,.38,0,.57,0,0,0,.02,0,.04h0Z"/><path class="cls-1" d="m55.65,121.73c-.16-.19-.31-.36-.46-.54-.18-.2-.35-.41-.52-.62-.12-.15-.25-.29-.38-.44-.02-.03-.03-.05,0-.08.17-.26.34-.52.51-.78.04-.06.09-.12.14-.19.09.1.17.19.25.29.14.17.28.33.43.5.04.05.07.1.06.16,0,.55-.01,1.1-.02,1.65,0,.01,0,.02,0,.05h0Z"/><path class="cls-1" d="m55.67,119.64c-.2-.24-.4-.47-.61-.72.21-.24.41-.47.63-.72,0,.49-.01.96-.02,1.44h0Z"/><path class="cls-1" d="m52.5,122c.16.15.3.31.43.49-.03.04-.07.08-.1.12-.08.09-.16.17-.23.26,0,0,0,.01,0,.02,0,.03,0,.07,0,.1,0,0,0,0,0,0,.13-.14.26-.29.39-.43.04.06.08.11.12.17.05.07.09.15.14.23,0,.02,0,.02,0,.04-.13.14-.25.28-.38.42-.09.1-.17.19-.26.29,0,0-.01.02-.01.04,0,.03,0,.06,0,.09,0,0,0,0,0,0,.23-.26.47-.52.7-.78,0,0,0,.01.01.01.06.13.11.26.14.39,0,.02,0,.03-.01.04-.28.26-.56.53-.84.79,0,0-.01.02-.01.03,0,.03,0,.06,0,.09.29-.27.58-.55.88-.83,0,.02,0,.03,0,.04.02.2-.02.38-.13.55-.09.13-.21.23-.35.31-.06.03-.13.07-.2.09-.06.02-.12.03-.19.04-.01,0-.02,0-.04,0,0,.09,0,.18,0,.26,0,.03-.01.06-.04.08-.03.02-.07.03-.11.01-.04-.02-.06-.05-.06-.09,0-.18,0-.35,0-.53,0-.56.01-1.11.02-1.67,0-.18,0-.37,0-.55,0-.01,0-.02.01-.03.03-.03.06-.06.09-.09h0Z"/><path class="cls-1" d="m51.7,123.02s.07.08.1.12c.07.08.14.17.22.25.09.11.18.22.28.33,0,0,0,.01,0,.02,0,.15,0,.3,0,.45,0,0,0,0,0,0,0,0,0,0,0,0-.18-.18-.37-.36-.55-.54-.06-.06-.12-.12-.19-.18,0,0-.01-.02,0-.03.03-.14.09-.28.16-.41,0,0,0,0,0,0h0Z"/><path class="cls-1" d="m52.28,124.58c-.08-.03-.15-.05-.22-.09-.12-.05-.23-.12-.33-.22-.18-.18-.25-.4-.23-.65,0-.03,0-.05,0-.08,0,0,.01.01.02.01.25.24.5.49.74.73.01.01.02.02.02.04,0,.08,0,.15,0,.23,0,0,0,0,0,.02h0Z"/><path class="cls-1" d="m52.3,123.6c-.06-.08-.13-.15-.19-.22-.07-.08-.14-.17-.21-.25-.05-.06-.1-.12-.15-.18,0-.01-.01-.02,0-.03.07-.11.14-.21.21-.32.02-.03.04-.05.06-.08.03.04.07.08.1.12.06.07.11.13.17.2.02.02.03.04.03.07,0,.22,0,.44,0,.67,0,0,0,0,0,.02h0Z"/><path class="cls-1" d="m52.3,122.76c-.08-.1-.16-.19-.25-.29.08-.1.17-.19.25-.29,0,.2,0,.39,0,.58h0Z"/><path class="cls-6" d="m40.24,90.2c.05-.11.15-.05.22-.04.79.1,1.59.13,2.39.06,1.99-.19,3.76-.9,5.3-2.16,1.94-1.59,3.16-3.63,3.54-6.11.47-3-.29-5.68-2.24-8.03-.02-.02-.04-.05-.05-.07.01-.02.03-.03.04-.05,1.25,1.36,2.06,2.95,2.39,4.76.56,3.06-.14,5.83-2.12,8.24-1.59,1.93-3.64,3.07-6.11,3.46-1.13.18-2.25.14-3.37-.06h0Z"/><path class="cls-5" d="m40.68,79.26c-.03.07-.06.15-.1.25-.27-1.17-.39-2.32-.27-3.49.26-2.56,1.29-4.8,2.8-6.85,1.4-1.91,2.59-3.95,3.46-6.16.14-.36.29-.72.46-1.14.02.18.04.31.05.43.03.57.09,1.15.1,1.72.03,1.05-.17,2.07-.4,3.09-.51,2.28-1.44,4.35-2.84,6.23-.85,1.14-1.66,2.32-2.32,3.59-.39.75-.73,1.52-.94,2.34h0Z"/><path class="cls-5" d="m41.12,83.28c-.02.07-.03.15-.05.22,0,0-.01,0-.04.02-.27-.87-.4-1.74-.19-2.64.31-1.31.91-2.48,1.59-3.62.75-1.24,1.58-2.43,2.4-3.62,1.34-1.96,2.07-4.13,2.44-6.45.02-.12.04-.24.06-.36.11.1.11.36.11.36.01.32.02.64.04.96.03.44.07.87.05,1.31-.05.94-.28,1.85-.62,2.72-.58,1.53-1.43,2.91-2.34,4.26-.8,1.2-1.68,2.36-2.37,3.64-.54,1.01-.92,2.07-1.09,3.2h0Z"/><path class="cls-7" d="m40.68,79.26c.21-.82.55-1.59.94-2.34.67-1.27,1.47-2.45,2.32-3.59,1.4-1.87,2.33-3.95,2.84-6.23.23-1.02.43-2.04.4-3.09-.02-.57-.07-1.15-.1-1.72.04-.09.08-.18.13-.29.24,1.76.2,3.48-.22,5.2-.43,1.75-1.03,3.42-1.98,4.95-.52.85-1.14,1.63-1.71,2.45-1.04,1.51-1.96,3.09-2.47,4.86-.01.04-.03.07-.06.13-.03-.13-.06-.24-.08-.34h0Z"/><path class="cls-9" d="m41.12,83.28c.18-1.13.55-2.19,1.09-3.2.69-1.28,1.57-2.44,2.37-3.64.9-1.35,1.76-2.73,2.34-4.26.33-.88.57-1.78.62-2.72.02-.44-.02-.88-.05-1.31-.02-.32-.03-.64-.04-.96.03-.06.05-.12.09-.19.08.12.07.25.07.36.08,1.05.21,2.11,0,3.16-.25,1.26-.72,2.43-1.33,3.55-.74,1.36-1.6,2.65-2.49,3.91-.81,1.14-1.55,2.32-2.02,3.64-.22.62-.39,1.25-.49,1.91,0,.03-.02.06-.03.1-.08-.11-.08-.23-.12-.34h0Z"/><path class="cls-4" d="m37.5,84.32c-1.08-1.21-1.58-2.63-1.49-4.24.14-2.34,1.35-3.98,3.41-5.03.12-.06.18-.13.2-.27.33-1.56.93-2.99,1.93-4.24h.22c-.21.31-.4.6-.59.9-.68,1.08-1.14,2.24-1.38,3.49-.03.13-.11.17-.21.22-1.4.7-2.48,1.73-3.02,3.22-.74,2.04-.45,3.96.83,5.71.04.06.09.12.13.18-.02.02-.03.03-.05.05h0Z"/><path class="cls-2" d="m38.08,84.79s.27.21.37.25c.83.66,1.77,1.03,2.82,1.15,1.72.2,3.25-.28,4.55-1.4,1.07-.92,1.73-2.09,1.96-3.49.2-1.25.08-2.45-.51-3.59-.23-.43-.53-.82-.85-1.2-.15-.17-.29-.34-.45-.49-.1-.1-.04-.16,0-.24.28-.49.55-.99.8-1.5.29-.59.5-1.21.68-1.85.08-.27.12-.27.36-.11.25.17.45.34.69.55.03.03.87.87.93,1,1.95,2.34,2.7,5.03,2.24,8.02-.38,2.48-1.6,4.52-3.54,6.11-1.54,1.26-3.32,1.98-5.3,2.16-.8.07-1.44.12-2.61-.01-1.54-.31-2.95-.92-4.21-1.88-1.3-.98-2.32-2.19-3.03-3.66-.45-.93-.74-1.9-.88-2.93-.1-.72-.12-1.44-.07-2.15.07-1.06.32-2.1.73-3.08.4-.95.93-1.83,1.6-2.61.75-.87,1.63-1.59,2.63-2.16,1.08-.62,2.25-.99,3.47-1.19.33-.05.67-.07,1-.1.05,0,.18-.08.14.09-1.01,1.25-1.6,2.69-1.93,4.24-.03.14-.08.21-.2.27-2.06,1.05-3.27,2.68-3.41,5.03-.09,1.61.41,3.03,1.49,4.24.14.2.53.53.53.53h0Z"/></svg>
